<svg width="200" height="200" viewBox="0 0 200 200" fill="none" xmlns="http://www.w3.org/2000/svg">
  <!-- Background -->
  <rect width="200" height="200" fill="#0052FF"/>
  
  <!-- Bingo Card Grid (Simplified) -->
  <g transform="translate(40, 40)">
    <!-- BINGO Letters -->
    <text x="10" y="20" font-family="Arial, sans-serif" font-size="12" font-weight="bold" fill="white">B</text>
    <text x="30" y="20" font-family="Arial, sans-serif" font-size="12" font-weight="bold" fill="white">I</text>
    <text x="50" y="20" font-family="Arial, sans-serif" font-size="12" font-weight="bold" fill="white">N</text>
    <text x="70" y="20" font-family="Arial, sans-serif" font-size="12" font-weight="bold" fill="white">G</text>
    <text x="90" y="20" font-family="Arial, sans-serif" font-size="12" font-weight="bold" fill="white">O</text>
    
    <!-- Grid -->
    <rect x="5" y="25" width="100" height="80" stroke="white" stroke-width="1" fill="none"/>
    
    <!-- Grid Lines -->
    <line x1="25" y1="25" x2="25" y2="105" stroke="white" stroke-width="0.5"/>
    <line x1="45" y1="25" x2="45" y2="105" stroke="white" stroke-width="0.5"/>
    <line x1="65" y1="25" x2="65" y2="105" stroke="white" stroke-width="0.5"/>
    <line x1="85" y1="25" x2="85" y2="105" stroke="white" stroke-width="0.5"/>
    
    <line x1="5" y1="41" x2="105" y2="41" stroke="white" stroke-width="0.5"/>
    <line x1="5" y1="57" x2="105" y2="57" stroke="white" stroke-width="0.5"/>
    <line x1="5" y1="73" x2="105" y2="73" stroke="white" stroke-width="0.5"/>
    <line x1="5" y1="89" x2="105" y2="89" stroke="white" stroke-width="0.5"/>
    
    <!-- Sample Numbers -->
    <text x="15" y="35" font-family="Arial, sans-serif" font-size="6" fill="white">7</text>
    <text x="35" y="35" font-family="Arial, sans-serif" font-size="6" fill="white">22</text>
    <text x="55" y="35" font-family="Arial, sans-serif" font-size="6" fill="white">FREE</text>
    <text x="75" y="35" font-family="Arial, sans-serif" font-size="6" fill="white">51</text>
    <text x="95" y="35" font-family="Arial, sans-serif" font-size="6" fill="white">68</text>
  </g>
  
  <!-- Based Bingo Text -->
  <text x="100" y="140" font-family="Arial, sans-serif" font-size="16" font-weight="bold" fill="white" text-anchor="middle">Based Bingo</text>
  <text x="100" y="160" font-family="Arial, sans-serif" font-size="10" fill="white" text-anchor="middle">🎲 Win $BINGO 🎲</text>
</svg> 